<svg width="256" height="256" viewBox="0 0 1088 960" fill="none" xmlns="http://www.w3.org/2000/svg">
    <defs>
        <linearGradient id="gradient_body" gradientUnits="userSpaceOnUse" x1="560.587" y1="737.004" x2="443.591" y2="423.966">
            <stop offset="0" stop-color="#41008B"></stop>
            <stop offset="0.4" stop-color="#6047A7"></stop>
            <stop offset="0.7" stop-color="#786EC5"></stop>
            <stop offset="1" stop-color="#9C8CE0"></stop>
        </linearGradient>

        <linearGradient id="gradient_leg" gradientUnits="userSpaceOnUse" x1="679.292" y1="903.877" x2="922.132" y2="536.31">
            <stop offset="0" stop-color="#280B74"></stop>
            <stop offset="0.3" stop-color="#45188A"></stop>
            <stop offset="0.6" stop-color="#7028B2"></stop>
            <stop offset="1" stop-color="#9C5CE0"></stop>
        </linearGradient>

        <linearGradient id="gradient_blade" gradientUnits="userSpaceOnUse" x1="568.581" y1="561.356" x2="741.461" y2="312.186">
            <stop offset="0" stop-color="#7561BD"></stop>
            <stop offset="0.4" stop-color="#48A2CE"></stop>
            <stop offset="0.7" stop-color="#55A6CD"></stop>
            <stop offset="1" stop-color="#70D0E8"></stop>
        </linearGradient>

        <linearGradient id="gradient_cap" gradientUnits="userSpaceOnUse" x1="384.448" y1="217.825" x2="582.486" y2="278.56">
            <stop offset="0" stop-color="#28ABCF"></stop>
            <stop offset="0.4" stop-color="#19D3D8"></stop>
            <stop offset="0.7" stop-color="#13D6DD"></stop>
            <stop offset="1" stop-color="#75E0E2"></stop>
        </linearGradient>
    </defs>

    <!-- Main shapes only for icon clarity -->
    <path d="M1002.72 76.4197C1004.84 76.4465 1005.27 76.2879 1006.96 77.3811C1010.06 82.0728 994.326 112.165 991.182 118.813C942.055 225.294 880.398 325.531 807.518 417.4C781.492 450.023 754.033 481.477 725.222 511.669C587.073 657.713 422.366 776.099 239.91 860.495C224.176 867.684 208.368 874.709 192.488 881.571C152.947 898.867 121.019 918.125 81.4572 886.165C61.3788 868.165 52.6867 840.002 60.8562 813.75C66.08 796.964 78.8635 779.36 87.817 764.112C97.7031 747.276 107.896 729.654 118.573 713.281C124.751 710.693 132.891 708.016 139.323 705.597C152.085 700.83 164.769 695.857 177.37 690.68C220.166 673.264 262.279 654.216 303.618 633.577C349.673 610.209 394.82 585.092 438.959 558.281C513.741 513.063 585.646 463.249 654.258 409.126C746.821 334.916 834.573 254.896 916.984 169.552C935.77 150.364 954.174 130.804 972.185 110.886C982.483 99.4925 992.318 87.7051 1002.72 76.4197Z" fill="url(#gradient_body)"/>

    <path d="M860.538 157.758C861.475 157.746 862.601 157.732 863.502 158.032C864.653 158.416 865.553 159.216 865.909 160.4C866.319 161.764 865.64 163.803 865.098 165.04C861.065 174.246 821.344 212.839 811.132 223.316C773.703 261.714 732.994 297.298 691.674 331.41C564.305 436.51 424.944 526.164 276.5 598.5C253.553 609.688 230.424 620.498 207.122 630.926C194.181 636.746 180.848 642.614 167.651 647.881C165.32 648.811 162.356 649.74 160.077 648.667C157.405 643.187 172.02 622.409 175.24 617.392C202.888 572.194 229.532 525.879 256.994 480.53C267.301 463.509 277.135 445.743 287.626 428.924C295.298 425.346 306.788 421.326 314.948 418.013C331.729 411.175 348.406 404.085 364.974 396.746C412.326 375.333 458.434 351.267 503.077 324.663C530.603 308.34 557.525 291.02 583.79 272.736C592.452 266.681 601.024 260.498 609.503 254.19C616.822 248.675 634.109 235.018 641.71 231.758C653.07 245.522 666.034 271.358 676.277 287.163C699.968 273.202 720.224 258.808 742.749 243.161C769.048 225.013 795.113 206.527 820.936 187.707C833.736 178.312 848.059 166.342 860.538 157.758Z" fill="url(#gradient_blade)"/>

    <path d="M520.423 110.226C534.837 109.77 549.258 113.438 561.872 120.348C580.769 130.7 590.577 149.485 601.288 167.192C607.201 176.966 613.425 186.49 618.966 196.483C607.538 206.88 587.681 220.78 574.999 230.057C518.683 271.253 461.066 304.27 398.777 335.245C389.655 339.818 339.162 364.188 331.777 363.116C328.561 359.764 332.546 354.93 334.61 351.377C343.222 336.558 352.403 322.049 361.279 307.376L421.543 207.654L445.99 166.546C456.27 149.152 464.643 132.011 482.712 121.534C495.308 114.231 506.027 111.257 520.423 110.226Z" fill="url(#gradient_cap)"/>

    <path d="M942.482 293.563C944.172 293.978 948.037 294.867 947.652 297.114C946.05 306.465 940.663 318.486 937.078 327.072C916.169 377.609 891.031 426.292 861.933 472.601C849.485 491.995 836.483 511.027 822.944 529.674C823.004 529.769 823.063 529.863 823.123 529.957L941.822 731.154L966.307 772.572C981.967 798.657 996.257 818.698 988.298 851.012C983.741 869.058 972.159 884.534 956.13 893.993C922.844 913.905 894.247 898.354 863.738 882.644C848.979 874.046 816.303 860.427 803.871 851.484C799.034 848.004 773.166 801.49 769.304 794.933L701.406 680.288L695.769 670.522C679.462 681.937 663.892 694.586 647.263 706.052C614.9 727.906 581.266 747.817 546.54 765.678C524.586 776.89 502.24 787.313 479.542 796.929C471.902 800.215 451.463 810.179 444.464 807.908C439.506 802.686 455.89 794.372 459.431 792.058C466.531 787.348 473.591 782.576 480.609 777.745C502.373 762.66 523.769 747.051 544.779 730.932C660.391 642.601 763.736 539.28 852.096 423.689C873.337 395.939 893.63 367.476 912.939 338.349C918.512 330.009 923.943 321.576 929.232 313.053C933.02 307.024 937.882 298.769 942.482 293.563Z" fill="url(#gradient_leg)"/>
</svg>
